<?xml version="1.0" encoding="utf-8"?>
<!-- Generator: Adobe Illustrator 19.0.0, SVG Export Plug-In . SVG Version: 6.00 Build 0)  -->
<svg version="1.1" id="图层_1" xmlns="http://www.w3.org/2000/svg" xmlns:xlink="http://www.w3.org/1999/xlink" x="0px" y="0px" width="25px" height="25px"
style="enable-background:new 0 0 25 25;" xml:space="preserve">
<style type="text/css">
	.st0{fill:#E47929;}
	.st1{clip-path:url(#XMLID_9_);}
	.st2{fill:none;stroke:#E47929;stroke-linecap:round;stroke-linejoin:round;stroke-miterlimit:10;}
</style>
<path id="XMLID_8_" class="st0" d="M10.8,16.8c0.5-0.3,0.9-0.6,1.4-0.9c0.4-0.3,1.2-1,1.6-0.6c0.8,0.8,1.7,1.6,2.5,2.5
	c0.3,0.3-0.1,1.3-0.3,1.7c-0.5,0.7-0.9,1.4-1.4,2.1c-0.3,0.6-0.7,0.6-1.3,0.3c-2.1-1.2-3.7-2.8-5-4.8c-1.9-3-2.8-6.4-3.2-9.9
	C5.1,6.8,5,6.4,5,6c0-0.5,0.2-0.9,0.7-0.9C6.7,5,7.6,4.8,8.5,4.8c0.3,0,1.3,0.1,1.4,0.4c0.4,1.1,0.7,2.2,1,3.3
	c0.1,0.4-0.6,1-1.1,1.2C9.7,9.8,9.6,9.9,9.4,10c-1.2,0.7-1.2,0.7-0.9,2C9,13.7,9.8,15.3,10.8,16.8z"/>
<g id="XMLID_2_">
	<defs>
		
			<rect id="XMLID_3_" x="13.4" y="3.6" transform="matrix(0.9807 0.1958 -0.1958 0.9807 1.8111 -3.2544)" width="7.9" height="7.9"/>
	</defs>
	<clipPath id="XMLID_9_">
		<use xlink:href="#XMLID_3_"  style="overflow:visible;"/>
	</clipPath>
	<g id="XMLID_4_" class="st1">
		<circle id="XMLID_7_" class="st2" cx="13.5" cy="10.1" r="6.5"/>
		<circle id="XMLID_6_" class="st2" cx="13.5" cy="10.1" r="4.4"/>
		<circle id="XMLID_5_" class="st2" cx="13.5" cy="10.1" r="2.2"/>
	</g>
</g>
</svg>
