<?xml version="1.0" encoding="utf-8"?>
<!-- Generator: Adobe Illustrator 19.0.0, SVG Export Plug-In . SVG Version: 6.00 Build 0)  -->
<svg version="1.1" id="图层_1" xmlns="http://www.w3.org/2000/svg" xmlns:xlink="http://www.w3.org/1999/xlink" x="0px" y="0px" width="25px" height="25px"
	 style="enable-background:new 0 0 25 25;" xml:space="preserve">
<style type="text/css">
	.st0{fill:none;stroke:#E47929;stroke-width:2;stroke-linecap:round;stroke-linejoin:round;stroke-miterlimit:10;}
	.st1{fill:#E47929;}
	.st2{fill:none;stroke:#E47929;stroke-linecap:round;stroke-linejoin:round;stroke-miterlimit:10;}
</style>
<g id="XMLID_2_">
	<circle id="XMLID_6_" class="st0" cx="10.9" cy="10.5" r="6.8"/>
	<path id="XMLID_5_" class="st1" d="M19.4,21.2c-0.4,0-0.8-0.2-1.1-0.5L14,16.2l2.2-2.1l4.3,4.6c0.6,0.6,0.5,1.6-0.1,2.1
		C20.1,21.1,19.7,21.2,19.4,21.2z"/>
	<path id="XMLID_4_" class="st1" d="M16.2,14.9l3.9,4.2c0.4,0.4,0.4,1,0,1.4c-0.2,0.2-0.4,0.3-0.7,0.3c-0.3,0-0.5-0.1-0.7-0.3
		l-3.9-4.2L16.2,14.9z"/>
	<path id="XMLID_3_" class="st2" d="M13.9,13.3c-1.4,1.5-3.8,1.8-5.5,0.5"/>
</g>
</svg>
