<?xml version="1.0" encoding="utf-8"?>
<!-- Generator: Adobe Illustrator 17.0.0, SVG Export Plug-In . SVG Version: 6.00 Build 0)  -->
<!DOCTYPE svg PUBLIC "-//W3C//DTD SVG 1.1//EN" "http://www.w3.org/Graphics/SVG/1.1/DTD/svg11.dtd">
<svg version="1.1" id="图层_1" xmlns="http://www.w3.org/2000/svg" xmlns:xlink="http://www.w3.org/1999/xlink" x="0px" y="0px"
	 width="160px" height="30px" viewBox="0 0 160 30" enable-background="new 0 0 160 30" xml:space="preserve">
<path fill="#164159" d="M44.453,22.903h-2.459v-7.948h2.353v1.301c0.519-0.867,1.244-1.301,2.172-1.301h0.244v2.313
	c-0.142-0.011-0.244-0.017-0.309-0.017c-0.727,0-1.266,0.253-1.619,0.756c-0.255,0.369-0.382,1.023-0.382,1.963V22.903
	L44.453,22.903z"/>
<path fill="#164159" d="M55.639,22.903h-2.338v-3.552c0-0.622-0.122-1.097-0.365-1.431c-0.293-0.402-0.711-0.603-1.252-0.603
	c-0.418,0-0.774,0.149-1.076,0.446c-0.32,0.318-0.478,0.707-0.478,1.166c0,0.451,0.154,0.838,0.458,1.156
	c0.293,0.307,0.659,0.461,1.092,0.461c0.256,0,0.489-0.055,0.695-0.165c0.072-0.035,0.219-0.128,0.441-0.28v2.346
	c-0.412,0.301-0.878,0.454-1.393,0.454c-1.099,0-2.019-0.43-2.756-1.288c-0.65-0.754-0.976-1.637-0.976-2.653
	c0-1.156,0.402-2.119,1.208-2.885c0.779-0.745,1.712-1.119,2.8-1.119c0.758,0,1.454,0.196,2.083,0.588
	c0.655,0.4,1.15,0.958,1.477,1.673c0.254,0.547,0.38,1.183,0.38,1.909v3.549V22.903z"/>
<path fill="#164159" d="M61.732,14.955h2.599l-1.895,6.242c-0.18,0.589-0.363,0.98-0.555,1.182c-0.329,0.35-0.839,0.524-1.526,0.524
	c-0.738,0-1.273-0.21-1.608-0.632c-0.164-0.205-0.335-0.604-0.513-1.203l-1.852-6.113h2.582l1.357,5.142L61.732,14.955
	L61.732,14.955z"/>
<path fill="#164159" d="M71.541,19.321l1.477,1.289c-0.485,0.705-0.96,1.215-1.421,1.528c-0.748,0.509-1.581,0.766-2.498,0.766
	c-1.153,0-2.121-0.401-2.906-1.204c-0.749-0.772-1.123-1.687-1.123-2.747c0-0.823,0.233-1.58,0.699-2.267
	c0.402-0.606,0.939-1.06,1.608-1.361c0.542-0.246,1.123-0.369,1.753-0.369c1.292,0,2.311,0.49,3.056,1.463
	c0.183,0.246,0.394,0.639,0.635,1.18l-4.099,2.443l-0.825-1.434l2.198-1.359c-0.293-0.261-0.632-0.392-1.022-0.392
	c-0.482,0-0.882,0.178-1.201,0.539c-0.33,0.366-0.496,0.825-0.496,1.378c0,0.58,0.172,1.06,0.513,1.438
	c0.359,0.404,0.823,0.604,1.388,0.604c0.625,0,1.163-0.208,1.619-0.627C71.15,19.953,71.364,19.665,71.541,19.321L71.541,19.321z"/>
<polygon fill="#164159" points="76.356,22.903 73.972,22.903 73.972,11.775 76.356,11.775 76.356,22.903 "/>
<path fill="#164159" d="M123.503,16.363h5.948c0.006,1.192-0.091,2.11-0.292,2.752c-0.365,1.213-1.111,2.18-2.232,2.902
	c-0.917,0.591-1.917,0.885-3.001,0.885c-1.105,0-2.132-0.304-3.079-0.918c-0.888-0.571-1.554-1.327-1.998-2.273
	c-0.351-0.744-0.526-1.537-0.526-2.377c0-1.51,0.523-2.803,1.571-3.874c1.105-1.124,2.457-1.687,4.056-1.687
	c1.137,0,2.234,0.335,3.293,1.005c0.343,0.22,0.673,0.479,0.982,0.784l-1.864,1.717c-0.244-0.231-0.448-0.397-0.603-0.501
	c-0.515-0.34-1.094-0.508-1.747-0.508c-0.88,0-1.601,0.311-2.167,0.931c-0.523,0.582-0.786,1.296-0.786,2.141
	c0,0.858,0.268,1.58,0.802,2.163c0.55,0.603,1.261,0.903,2.137,0.903c0.952,0,1.69-0.351,2.216-1.049
	c0.225-0.302,0.362-0.623,0.407-0.964h-3.119V16.363L123.503,16.363z"/>
<path fill="#164159" d="M135.007,14.955h2.393v4.35c0,1.112-0.298,1.979-0.895,2.606c-0.633,0.662-1.492,0.993-2.573,0.993
	c-0.654,0-1.252-0.135-1.79-0.406c-0.741-0.369-1.233-0.908-1.481-1.609c-0.171-0.473-0.254-1.027-0.254-1.656v-4.278h2.393v4.001
	c0,0.464,0.073,0.809,0.221,1.036c0.206,0.311,0.498,0.469,0.879,0.469c0.405,0,0.714-0.171,0.919-0.51
	c0.127-0.211,0.189-0.574,0.189-1.099V14.955L135.007,14.955z"/>
<g>
	<polygon fill="#164159" points="141.136,22.903 138.752,22.903 138.752,15.591 141.136,15.591 141.136,22.903 	"/>
	<path fill="#164159" d="M139.968,11.798c0.42,0,0.788,0.157,1.106,0.469c0.305,0.3,0.459,0.674,0.459,1.119
		c0,0.442-0.154,0.816-0.459,1.122c-0.318,0.312-0.694,0.469-1.128,0.469c-0.432,0-0.806-0.157-1.123-0.469
		c-0.312-0.306-0.469-0.677-0.469-1.114c0-0.456,0.157-0.831,0.469-1.127C139.14,11.955,139.523,11.798,139.968,11.798
		L139.968,11.798z"/>
</g>
<path fill="#164159" d="M150.436,11.775v6.863c0,1.194-0.333,2.166-0.999,2.924c-0.795,0.894-1.776,1.341-2.941,1.341
	c-1.181,0-2.156-0.42-2.925-1.262c-0.342-0.373-0.606-0.806-0.799-1.305c-0.19-0.499-0.285-1.005-0.285-1.521
	c0-0.522,0.098-1.032,0.29-1.534c0.193-0.499,0.465-0.937,0.817-1.308c0.346-0.373,0.751-0.665,1.216-0.872
	c0.465-0.207,0.936-0.311,1.417-0.311c0.454,0,0.922,0.142,1.408,0.422v2.436c-0.407-0.297-0.79-0.446-1.144-0.446
	c-0.444,0-0.814,0.152-1.107,0.455c-0.304,0.307-0.457,0.706-0.457,1.19c0,0.426,0.122,0.79,0.365,1.094
	c0.298,0.373,0.689,0.557,1.173,0.557c0.61,0,1.062-0.266,1.363-0.797c0.181-0.319,0.271-0.802,0.271-1.445v-6.481H150.436
	L150.436,11.775z"/>
<path fill="#164159" d="M157.861,19.321l1.477,1.289c-0.485,0.705-0.96,1.215-1.421,1.528c-0.748,0.509-1.581,0.766-2.498,0.766
	c-1.153,0-2.121-0.401-2.907-1.204c-0.748-0.772-1.122-1.687-1.122-2.747c0-0.823,0.233-1.58,0.699-2.267
	c0.403-0.606,0.939-1.06,1.608-1.361c0.543-0.246,1.124-0.369,1.753-0.369c1.292,0,2.311,0.49,3.056,1.463
	c0.183,0.246,0.395,0.639,0.636,1.18l-4.098,2.443l-0.827-1.434l2.198-1.359c-0.292-0.261-0.632-0.392-1.021-0.392
	c-0.482,0-0.882,0.178-1.201,0.539c-0.329,0.366-0.496,0.825-0.496,1.378c0,0.58,0.172,1.06,0.512,1.438
	c0.36,0.404,0.824,0.604,1.389,0.604c0.625,0,1.164-0.208,1.62-0.627C157.469,19.953,157.684,19.665,157.861,19.321L157.861,19.321z
	"/>
<path fill="#F9882B" d="M86.53,20.41v2.493h-1.466c-0.999,0-1.86-0.189-2.581-0.57c-1.009-0.532-1.787-1.333-2.334-2.396
	c-0.41-0.796-0.614-1.661-0.614-2.602c0-1.039,0.247-1.99,0.739-2.853c0.558-0.98,1.295-1.697,2.209-2.154
	c0.736-0.37,1.556-0.554,2.453-0.554h1.593v2.515h-0.801c-1.034,0-1.859,0.312-2.433,0.827c-0.657,0.593-0.987,1.35-0.987,2.268
	c0,1.028,0.392,1.833,1.177,2.421c0.357,0.268,0.748,0.442,1.172,0.532c0.258,0.047,0.639,0.072,1.137,0.072H86.53L86.53,20.41z"/>
<path fill="#F9882B" d="M94.479,22.903h-2.396v-4.232c0-0.971-0.349-1.459-1.044-1.459c-0.436,0-0.758,0.195-0.969,0.588
	c-0.127,0.228-0.19,0.581-0.19,1.06v4.043h-2.396V11.775h2.396v3.993c0.528-0.609,1.146-0.912,1.849-0.912
	c0.528,0,1.021,0.156,1.481,0.465c0.847,0.565,1.269,1.536,1.269,2.91V22.903L94.479,22.903z"/>
<g>
	<polygon fill="#F9882B" points="98.215,22.903 95.83,22.903 95.83,15.591 98.215,15.591 98.215,22.903 	"/>
	<path fill="#F9882B" d="M97.047,11.796c0.419,0,0.788,0.158,1.105,0.469c0.305,0.3,0.46,0.674,0.46,1.12
		c0,0.443-0.155,0.817-0.46,1.122c-0.317,0.312-0.694,0.469-1.129,0.469c-0.431,0-0.806-0.156-1.122-0.469
		c-0.312-0.306-0.469-0.677-0.469-1.114c0-0.457,0.157-0.831,0.469-1.129C96.218,11.954,96.601,11.796,97.047,11.796L97.047,11.796z
		"/>
</g>
<path fill="#F9882B" d="M106.56,22.903h-2.393v-4.106c0-0.517-0.082-0.882-0.247-1.097c-0.205-0.277-0.489-0.418-0.854-0.418
	c-0.406,0-0.711,0.163-0.911,0.485c-0.133,0.214-0.198,0.568-0.198,1.06v4.076h-2.393v-4.364c0-1.103,0.275-1.948,0.824-2.545
	c0.633-0.692,1.525-1.039,2.677-1.039c0.73,0,1.374,0.154,1.933,0.459c1.042,0.563,1.56,1.603,1.56,3.117V22.903L106.56,22.903z"/>
<path fill="#F9882B" d="M115.463,22.903h-2.338v-3.551c0-0.622-0.122-1.097-0.364-1.431c-0.294-0.403-0.711-0.602-1.253-0.602
	c-0.417,0-0.774,0.148-1.076,0.445c-0.319,0.318-0.478,0.708-0.478,1.167c0,0.451,0.153,0.839,0.457,1.156
	c0.293,0.307,0.658,0.462,1.092,0.462c0.256,0,0.489-0.057,0.694-0.165c0.072-0.035,0.22-0.128,0.442-0.28v2.347
	c-0.413,0.301-0.877,0.454-1.393,0.454c-1.099,0-2.019-0.431-2.756-1.29c-0.65-0.753-0.976-1.636-0.976-2.654
	c0-1.156,0.402-2.119,1.208-2.887c0.78-0.744,1.712-1.118,2.801-1.118c0.759,0,1.454,0.195,2.083,0.587
	c0.655,0.401,1.149,0.959,1.477,1.674c0.254,0.547,0.38,1.183,0.38,1.909v3.551V22.903z"/>
<g>
	<path fill-rule="evenodd" clip-rule="evenodd" fill="#F9882B" d="M21.527,10.365c0.199,0.202,0,0.403,0,0.604
		C21.527,10.768,21.527,10.567,21.527,10.365L21.527,10.365z"/>
	<path fill-rule="evenodd" clip-rule="evenodd" fill="#F9882B" d="M4.04,5.529c0.397-0.402,0.596-0.605,0.993-0.807
		C4.835,4.924,4.437,5.327,4.04,5.529L4.04,5.529z"/>
	<path fill-rule="evenodd" clip-rule="evenodd" fill="#F9882B" d="M15.566,28.702h0.198C15.764,28.702,15.566,28.501,15.566,28.702
		L15.566,28.702z M15.168,28.299c0,0-0.198,0.201,0,0.201c0-0.201,0.198,0,0.198-0.201H15.168z M16.161,28.299
		c-0.397-0.202-0.397,0.201-0.397,0c-0.198,0.201,0,0.201,0.199,0.201C15.963,28.501,16.161,28.501,16.161,28.299L16.161,28.299z
		 M16.161,28.098c0.199,0.202,0.199,0,0.199-0.201C16.161,27.897,16.161,28.098,16.161,28.098L16.161,28.098z M21.527,28.299
		c0-0.202-0.199-0.202-0.199,0C21.527,28.299,21.527,28.299,21.527,28.299L21.527,28.299z M15.366,27.897
		c0-0.202,0-0.202-0.198-0.202c0,0,0,0,0,0.202H15.366z M15.168,27.695L15.168,27.695c0-0.201,0.198-0.201,0-0.201
		C15.168,27.494,14.97,27.494,15.168,27.695L15.168,27.695z M14.373,27.695c0.198-0.201,0.398-0.201,0.398-0.404
		c-0.199,0-0.199,0.203-0.597,0.203h-0.198c-0.199,0.201-0.397,0-0.397,0.201c0.198,0,0.198-0.201,0.595,0H14.373L14.373,27.695z
		 M12.784,27.09c0,0.202,0,0.405,0.198,0.405c0.198-0.203,0.397-0.203,0.795-0.203C13.578,26.888,13.18,27.292,12.784,27.09
		L12.784,27.09z M12.187,27.09c0.597,0,0.993,0.202,1.192-0.201c-0.199-0.201-0.397,0-0.397,0c-0.198,0-0.198-0.201-0.198-0.201
		C12.784,27.09,12.187,27.09,12.187,27.09L12.187,27.09z M7.617,23.06l0.199,0.202c0-0.202,0-0.202,0-0.202
		C7.617,22.86,7.617,23.06,7.617,23.06L7.617,23.06z M3.643,18.829c-0.199,0.2-0.199,0.2-0.199,0.403l0,0c0.199,0,0-0.202,0-0.202
		c0.199,0,0.199,0,0.199,0C3.842,18.829,3.643,18.829,3.643,18.829L3.643,18.829z M1.457,17.015c0.199,0,0.199,0,0.199-0.202
		c0,0,0,0-0.199,0V17.015z M1.457,15.805c0.199,0,0.199,0.202,0.199,0.202s-0.199,0-0.199,0.202c0,0,0.397,0,0.397,0.202
		c-0.199,0-0.397,0-0.596,0.201c0.397,0,0.596-0.201,0.795,0c0-0.201-0.199-0.402-0.199-0.402c0-0.202,0.199-0.202,0.199-0.404
		C1.854,16.007,1.655,15.604,1.457,15.805L1.457,15.805z M3.245,13.187c0,0-0.198,0.604,0,0.806
		C3.245,13.589,3.245,13.387,3.245,13.187L3.245,13.187z M3.842,9.962c-0.199,0.202-0.398,0.404-0.596,0.806
		c0,0.202,0,0.604-0.198,1.008c0,0.202-0.199,0.403-0.199,0.604c-0.397,1.813,0,3.627,0.397,5.238
		c0.198-1.007-0.198-1.813-0.397-2.619c-0.199-2.216,0.994-4.231,1.391-6.044c-0.199,0-0.199,0.202-0.199,0.202
		C3.842,9.358,3.842,9.559,3.842,9.962L3.842,9.962z M7.219,5.127C7.418,4.924,7.816,4.722,8.014,4.32
		C7.617,4.32,7.418,4.722,7.219,5.127L7.219,5.127z M11.79,2.91c0.398,0,0.597-0.201,0.597-0.403c-0.199,0-0.199,0.202-0.397,0.202
		c-0.199,0-0.199,0-0.199,0c-0.397,0.201-0.993,0.201-1.192,0.604C11.194,3.313,11.392,2.91,11.79,2.91L11.79,2.91z M16.36,2.305
		c-1.192-0.201-2.187-0.403-2.981,0.202c0.994,0,1.789-0.202,2.782,0c0.199,0,0.398,0,0.398,0S16.36,2.103,16.36,2.305L16.36,2.305z
		 M24.11,3.313c0.198,0.202,0.596,0.604,0.994,0.806h-0.199c0,0.201,0.199,0.201,0.397,0.201c0,0.201,0.2,0,0,0
		c0.2-0.201,0.398,0.201,0.597,0.402c0,0.202,0.398,0.605,0.795,0.807h0.198c0.597,0.403,0.994,1.21,1.392,2.015
		c0,0.604,0.397,0.806,0.596,1.209c-0.398,0.605,0.199,1.209,0.397,1.814c-0.596-0.807-1.193-1.612-1.589-2.419
		c-0.398-0.402-0.596-0.604-0.994-1.007l0,0C25.7,5.73,23.911,4.924,22.321,4.118c1.392,1.411,3.577,2.418,4.77,4.231
		c-0.994-1.008-2.385-1.814-3.776-2.619c-0.795-0.403-1.391-0.806-2.186-1.21c-1.391-0.604-2.98-1.007-4.57-1.208
		c-0.398,0-0.795,0.202-1.193,0.202c-1.59,0-3.179,0.201-4.57,0.806c-0.795,0.201-1.391,1.007-2.186,1.209
		c-0.596,0.604-1.192,1.21-1.987,1.612c-0.398,1.208-1.391,1.612-1.59,3.022c-0.596,0.202-0.596,1.008-0.795,1.613
		c0,0.202,0,0.403,0,0.604c0,1.411-0.596,3.425,0,4.635c0,0.202-0.199,0.404,0,0.604c0.398,1.008,0.795,2.217,1.589,3.023
		c0,0.202,0.199,0.403,0.397,0.605c0-0.202,0-0.202,0-0.403c-0.198,0-0.198-0.202-0.198-0.202c0-0.604-0.596-1.209-0.795-1.813
		c0.398,0,0.398,0.604,0.795,0.806c0,0.201-0.199,0.201-0.199,0.201h0.199c0,0.403,0.398,0.605,0.198,0.806
		c0.2,0.202,0.398,0.403,0.398,0.806c0.397,0.403,0.596,0.807,0.993,1.209c0.199,0.203,0.398,0.402,0.596,0.604
		c0.199,0.403,0.795,0.605,1.192,1.009l0.199,0.2h0.199c0.597,0.404,1.392,1.007,1.987,1.21c0.597,0.201,1.59,0.403,2.584,0.604
		l0.198,0.202c0.795,0.202,1.988-0.202,2.584,0.403v-0.201c1.192,0,2.385-0.202,3.378-0.404c0,0.202-0.199,0.202-0.199,0.404
		c-0.198,0.201-0.397,0.402-0.596,0.604c0.198,0,0.397-0.403,0.596-0.604c0.199,0,0.398-0.202,0.398-0.604
		c0.596,0,0.993-0.202,1.391-0.403c0,0.403-0.199,0.805-0.397,1.007c0.397-0.202,0.795-0.404,0.795-1.21
		c0.199,0,0.596-0.202,0.795-0.202c0.993,0,1.391-0.805,1.987-1.207c0.398-0.405,0.597-0.405,0.994-1.009
		c0.397-0.604,0.993-1.41,1.391-2.014c0,0,0-0.201,0.198-0.201c0,0,0-0.202,0.198-0.202c0,1.209-0.397,2.218-1.192,2.821
		c0,0.403,0,0.403,0,0.605c-0.198,0-0.397,0.202-0.596,0.202c0.397,0.805-0.597,1.006-0.597,1.813
		c-0.596,0.201-1.192,0.402-1.391,1.208c-1.391,1.008-3.378,1.209-5.166,1.814c-0.397,0-0.795,0-0.993-0.201
		c-0.397,0.201-0.597,0.201-0.994,0.403l0,0c-0.199-0.202-0.795-0.403-0.994-0.202h-0.198c0.198,0,0.198-0.201,0.198-0.201
		c0.199,0,0.199-0.202,0-0.202c0,0-0.198,0-0.198,0.202c0.198,0.201-0.397,0,0,0.201h-0.199c-0.596,0-1.193-0.403-1.59-0.201
		c-0.595-0.202-1.39-0.202-1.987-0.403c-0.198-0.201-0.398-0.403-0.795-0.403c-0.596-0.201-0.993,0-1.59-0.201v-0.403
		c-1.59,0-1.987-1.009-2.98-1.613c0-0.201,0.397,0,0.397-0.201c-1.59-0.605-2.583-1.814-3.577-3.023c0-0.202-0.199-0.202,0-0.403
		c-0.199-0.403-0.397-0.605-0.596-0.807c0-0.201,0.198-0.201,0.397-0.201c0-0.202,0-0.403,0.199-0.807
		c0,0.404,0.795,0.605,0.994,0.202c-0.199-0.202-0.398,0-0.795,0c-0.199-0.404,0.397-0.806,0.198-1.209
		c-0.198,0-0.198,0.202-0.198,0.402c-0.398,0.202-0.596,0.202-0.795,0.403c0,0.404,0.198,0.606,0,0.807
		c-0.795-0.807-1.391-2.016-1.789-3.427c-0.199-0.604-0.397-1.208-0.199-2.015c0.199,0,0.199,0,0.199,0.201
		c0.199-0.201,0.397-0.201,0.596-0.402c-0.397,0-0.596,0-0.795,0c-0.198,0-0.198-0.404-0.397-0.404v-0.202
		c0.199-0.402,0.199-1.007,0.199-1.411l0,0c0.397-0.604,1.192-1.208,0.794-2.216c0.398,0,0.199,0,0.596,0
		c-0.198-0.202-0.397-0.202-0.596-0.403c0.398-0.403,0.199-1.008,0.398-1.813c0.198-1.008,0.993-1.814,1.39-2.822
		c0.199,0,0.199,0,0.398,0c0-0.201,0.198-0.402,0.198-0.604c0.397-0.202,0.795-0.605,0.993-0.807C5.63,4.32,5.828,3.715,6.425,3.514
		c0.199-0.202,0.398-0.202,0.596-0.202c0.596-0.403,1.59-1.209,2.185-1.411c0.795-0.201,1.789,0,2.583-0.604
		c1.192,0,2.186-0.605,3.577-0.404c0.199,0,0.596,0,0.795,0h0.199c2.186,0.404,4.173,0.807,5.961,1.612
		c0.199,0.202,0,0.403,0.199,0.403c0.199,0,0.199,0,0.199-0.201c0.397,0.201,0.596,0.402,0.794,0.402c0,0,0,0.202-0.198,0
		c0.198,0.404,0.398,0,0.596,0.202c0,0-0.198,0.202,0,0.202C24.11,3.514,24.11,3.514,24.11,3.313L24.11,3.313z"/>
	<path fill-rule="evenodd" clip-rule="evenodd" fill="#F9882B" d="M27.488,8.148c-0.199-0.402-0.597-0.604-0.795-1.007
		c0.398,0.403,0.596,0.604,0.994,1.007H27.488z"/>
	<path fill-rule="evenodd" clip-rule="evenodd" fill="#F9882B" d="M5.828,20.642L5.828,20.642c0,0,0.199,0.403,0.397,0.202
		c0,0.201,0,0.201,0,0.403C6.027,21.045,5.828,20.844,5.828,20.642L5.828,20.642z"/>
	<path fill-rule="evenodd" clip-rule="evenodd" fill="#F9882B" d="M20.334,26.687c-0.198,0.201-0.397,0.604-0.596,0.604
		C19.937,27.09,20.136,26.888,20.334,26.687L20.334,26.687z"/>
	<path fill-rule="evenodd" clip-rule="evenodd" fill="#F9882B" d="M5.828,20.642c0,0,0.199,0.202,0.199,0c0,0,0,0.202,0.198,0.202
		C6.027,21.045,5.828,20.642,5.828,20.642L5.828,20.642z"/>
	<path fill-rule="evenodd" clip-rule="evenodd" fill="#F9882B" d="M26.693,7.141L26.693,7.141c0.198,0.403,0.596,0.604,0.795,1.007
		C27.289,7.947,26.892,7.544,26.693,7.141L26.693,7.141z"/>
	<path fill-rule="evenodd" clip-rule="evenodd" fill="#F9882B" d="M26.693,5.529c0-0.202-0.199-0.202-0.199-0.202
		c0.199,0,0.199,0,0.397,0.202H26.693L26.693,5.529z"/>
	<path fill-rule="evenodd" clip-rule="evenodd" fill="#F9882B" d="M16.36,2.305c0-0.201,0.199,0.202,0.199,0.202s-0.199,0-0.398,0
		C16.161,2.305,16.36,2.506,16.36,2.305L16.36,2.305L16.36,2.305z"/>
	<path fill-rule="evenodd" clip-rule="evenodd" fill="#F9882B" d="M24.11,3.313c0,0.202,0,0.202-0.199,0.202
		c-0.198,0,0-0.202,0-0.202H24.11L24.11,3.313z"/>
	<path fill-rule="evenodd" clip-rule="evenodd" fill="#F9882B" d="M19.937,5.932c-0.198-0.202-0.397-0.403-0.595-0.805
		C19.54,5.327,19.937,5.529,19.937,5.932L19.937,5.932z"/>
	<path fill-rule="evenodd" clip-rule="evenodd" fill="#F9882B" d="M9.008,8.552c0-0.605,0.397-0.806,0.795-1.008
		c0,0.202,0,0.202-0.199,0.202c-0.199,0-0.398,0.201-0.596,0.402V8.552z"/>
	<path fill-rule="evenodd" clip-rule="evenodd" fill="#F9882B" d="M21.725,21.045c0.199-0.201,0.397-0.403,0.795-0.605
		C22.321,20.642,22.123,20.844,21.725,21.045L21.725,21.045z"/>
	<path fill-rule="evenodd" clip-rule="evenodd" fill="#F9882B" d="M24.11,8.552c0-0.404,0.198-0.404,0.198-0.605l0,0
		C24.308,8.148,24.11,8.148,24.11,8.552L24.11,8.552z"/>
	<path fill-rule="evenodd" clip-rule="evenodd" fill="#F9882B" d="M21.328,8.753c0.199,0.202,0.398,0.404,0.398,0.806
		c-0.199-0.202-0.199-0.402-0.398-0.604V8.753z"/>
	<path fill-rule="evenodd" clip-rule="evenodd" fill="#F9882B" d="M26.495,9.559c0,0.201-0.198,0.402,0.199,0.402
		C26.495,10.164,26.296,9.76,26.495,9.559L26.495,9.559z"/>
	<path fill-rule="evenodd" clip-rule="evenodd" fill="#F9882B" d="M10.2,9.157c0.199-0.404-0.596-0.605-0.795-0.202
		C9.008,9.559,10.399,9.962,10.2,9.157L10.2,9.157z M26.693,9.962c0,0,0,0,0.198,0H26.693c0,0-0.199,0.202-0.397,0.202
		c-0.199,0-0.398-0.202-0.398-0.403c-0.199,0-0.397-0.201-0.597-0.201c0-0.402-0.198-0.604,0-1.008
		c-0.397,0-0.397,0.201-0.596,0.201V8.35c-0.398,0-0.199,0.605-0.398,0.807c0.199,1.007,0.199,2.215,0.398,3.022
		c0.199,0,0-0.201,0.199,0c0,0.403,0.397,0.604,0.597,1.008c0.596,0.402,0.795,1.41,0.596,2.216
		c-0.199,0.806-0.994,1.612-1.59,2.619c-0.795,1.008-1.192,1.814-1.987,2.418c-0.398,0.202-0.596,0.404-0.795,0.605
		c-1.391,1.007-3.179,2.014-5.564,2.014c0-0.2-0.198,0-0.198-0.2c0-0.203-0.199,0-0.199,0.2c-0.198,0.404-0.596,0.604-0.596,1.211
		c-0.596,0.805-1.192,1.207-1.988,1.41c-0.198-0.202-0.794-0.404-0.794-0.806c0-0.202,0.398,0.201,0.596,0l0,0
		c0,0,0-0.202-0.398-0.202c0,0,0-0.202-0.198-0.202c0-0.2,0-0.402-0.199-0.605c-0.198,0-0.398,0.203-0.596,0.203
		c0-0.203,0.198-0.405,0.198-0.605c0.398,0,0.795,0,0.994,0.201c0.198,0.405,0.198,1.008,0.795,1.008
		c0-0.402-0.398-0.402-0.596-0.604c0.198-0.203,0.198-0.405,0.198-0.605v-0.202c0-0.202-0.198-0.202-0.198-0.202
		c-0.198-0.2,0.198-0.2,0.397-0.2c0.596,0.401,0.199,1.209,0.794,1.611c0.2-0.605,0.398-0.806,0.398-1.411v-0.402
		c0-0.202,0-0.403,0-0.403v-0.403c-0.198,0-0.198,0.201-0.198,0.201v0.605c-0.2,0-0.2,0-0.2,0h-0.397
		c-2.582-0.403-4.173-1.813-3.974-4.434c0.199-0.202,0-0.402,0.199-0.605c0.596-3.223,4.372-2.821,5.962-4.836
		c0.398-0.805,0.198-1.612-0.199-2.015c-0.398-0.201-1.391-0.403-1.988-0.201c0,0.402-0.397,0.604-0.795,0.604
		c0-0.202,0-0.202,0-0.403c-0.398,0-0.398,0-0.795,0c0,0-0.398,0.202-0.398,0.403c0,0.201,0,0.401,0.199,0.401
		c-0.199,0.203-0.398,0.203-0.795,0.405l-0.398-0.202c-0.199,0-0.397-0.203-0.596,0c-0.199,0-0.199,0.202-0.199,0.403
		c0,0.202,0.199,0.202,0.199,0.403c-0.199,0-0.398,0.202-0.398,0.202c-0.199,0-0.398,0.201-0.596,0c0-0.202-0.397-0.202-0.397-0.202
		c-0.199,0-0.398,0-0.398,0v0.202c-0.199,0.201,0,0.604,0.398,0.604H8.611l0,0c0-0.2-0.199,0-0.398,0l0,0
		c-0.198-0.2-0.198-0.403-0.397-0.604l0,0c-0.199-0.202-0.397,0-0.397,0.201c0,0,0,0-0.199,0c0,0,0.199-0.201,0-0.403
		c0.199-0.201,0.397-0.403,0.397-0.604c0.199-0.202,0.398-0.202,0.398-0.405c0.795-0.201,1.59-0.401,2.186-0.805
		c0.199-0.201-0.199-0.605-0.199-0.403c-0.795-0.202-0.993,0.202-1.391,0.403c0,0,0,0,0,0.202c-0.398-0.202-0.398,0.202-0.596,0.202
		c-0.398,0.201-0.596,0.201-0.994,0.201c-0.198-0.201-0.596-0.201-0.596-0.403c-0.2-0.202-0.2-0.202-0.398-0.402
		c0-0.404,0.198-0.605,0.398-1.008c0,0,0.199,0,0.398-0.202l0,0c0.198-0.201,0.397,0.202,0.596,0c0.397,0,0.596-0.201,0.994-0.402
		c0.199,0,0.199,0.202,0.596,0.202c0,0-0.198-0.202,0-0.404c0,0,0.198,0,0.397-0.201c0,0-0.199,0-0.397,0V8.148
		c0.198-0.202,0.397-0.202,0.596-0.402c0.199,0,0.199,0,0.199-0.202c0.199,0,0.398-0.202,0.597-0.403
		C10.597,7.342,10.2,7.544,10.2,7.746c-0.199,0-0.199,0.201-0.398,0.201c0.199,0,0.398,0.202,0.597,0h0.198
		c0.398,0.202,0.994,0.202,1.392,0.202c0.397,0,0.795,0.202,0.993,0c0.198,0,0.198,0.202,0.198,0c1.591,0,2.981-0.202,3.18-1.813
		c0,0,0.199,0.201,0.199,0.403v0.604L16.36,7.544c0.397,0,0.994-0.202,1.59-0.403c-0.198,0.403-0.795,0.403-1.192,0.604
		c-0.198,0-0.397,0-0.397,0.201c-0.199,0-0.398,0.202-0.398,0.403c-0.199,0-0.397,0.202-0.397,0.403
		c-0.199,0.202-0.199,0.404-0.398,0.605c1.391,0.604,2.782,1.008,2.782,2.62c-0.198,1.611-0.994,2.82-2.186,3.425
		c-0.795,0.604-1.59,1.008-2.385,1.411c0,0.403-0.199,0.605-0.199,1.008c0,0.605,0.199,1.208,0.796,1.008
		c0.994-0.606,1.59-2.822,2.584-3.225c0.198,0.605-0.597,0.807-0.398,1.411c-0.198,0.202-0.198,0.604-0.198,0.604
		c0.198,0.202,0.198,0.403,0.198,0.807c0.199,0.201,0.199,0,0.398,0c0,0.201,0,0.404,0,0.404c0,0.403,0,0.806,0,1.006v0.202
		c1.987,0.201,3.377-0.605,4.768-1.411c-0.596,0-1.192-0.805-0.596-1.409c0-0.202-0.199-0.202-0.199-0.403
		c0.397,0,0.397,0.403,0.794,0.403c0.398,0.202,0.994,0,1.193-0.202c0-0.404,0-0.806,0-1.21c-0.199-1.612-0.994-3.224-0.994-4.836
		c0-0.202,0.199-0.402,0-0.604c0.199-0.806-0.398-1.208-0.795-2.016c-0.199-0.806-0.199-1.814-0.795-2.418
		c0-0.403-0.397-0.605-0.595-0.805c-0.2-0.202-0.398-0.202-0.795-0.404c-0.199,0-0.397-0.202-0.596,0
		c-0.596,0-0.795,0.605-0.795,1.008c-0.199,0-0.398-0.202-0.398-0.403c0-0.201,0-0.403,0.199-0.605
		c1.193-1.208,3.378,0.404,3.577,1.613c0.397,0.806,0.199,2.014,0.794,2.418v0.202c0.199,0.202,0.199,0.402,0.398,0.604
		c0.397,0.604,0.397,1.612,0.596,2.418c0,0.201,0.199,0.604,0.199,0.805c0.199,1.008,0.397,2.216,0.993,3.022
		c0.597-0.201,1.59-1.209,0.597-1.41c0,0,0.198,0.402,0,0.604c-0.597-0.604-1.192-1.612-0.597-2.619c0.2-0.202,0.2-0.604,0.2-0.604
		c0-0.807,0-1.008-0.2-1.613c0.398-0.403,0.398-1.208,0.597-1.612l0,0c0-0.404,0.198-0.404,0.198-0.605
		c0.199,0,0.398-0.201,0.398-0.403c0.994,0,1.193,0.604,1.987,0.806c0,0.403,0,0.403,0,0.605c-0.199,0-0.199-0.202-0.397-0.202
		c0,0.404,0.397,0.404,0.596,0.605c0,0.202-0.198,0.403-0.397,0.202C26.296,9.76,26.495,10.164,26.693,9.962L26.693,9.962z"/>
	<path fill-rule="evenodd" clip-rule="evenodd" fill="#F9882B" d="M12.584,24.673c0.398,0,0.398,0.202,0.398,0.202l0,0
		C12.982,24.673,12.784,24.673,12.584,24.673L12.584,24.673z"/>
	<path fill-rule="evenodd" clip-rule="evenodd" fill="#F9882B" d="M12.187,10.768c0.397,0,0.397,0,0.795,0c0,0.202,0,0.202,0,0.403
		C12.982,10.768,12.584,10.768,12.187,10.768L12.187,10.768z"/>
	<path fill-rule="evenodd" clip-rule="evenodd" fill="#F9882B" d="M11.79,11.171c0.199,0,0,0.401,0.199,0.401
		C11.79,11.573,11.79,11.372,11.79,11.171L11.79,11.171z"/>
	<path fill-rule="evenodd" clip-rule="evenodd" fill="#F9882B" d="M10.001,12.179c0-0.201,0-0.403,0.199-0.403c0,0,0,0-0.199,0
		V12.179z"/>
	<path fill-rule="evenodd" clip-rule="evenodd" fill="#F9882B" d="M8.412,12.783c-0.199,0.404,0.398,0.404,0.199,0.604h0.199
		C8.412,13.387,8.213,12.984,8.412,12.783L8.412,12.783z"/>
	<path fill-rule="evenodd" clip-rule="evenodd" fill="#F9882B" d="M7.418,12.984c0-0.201,0.199-0.403,0.397-0.201l0,0
		C7.617,12.783,7.617,12.984,7.418,12.984L7.418,12.984z"/>
	<path fill-rule="evenodd" clip-rule="evenodd" fill="#F9882B" d="M7.617,11.978c0.199-0.202,0.199-0.405,0.398-0.405
		C8.014,11.776,7.816,11.776,7.617,11.978L7.617,11.978z"/>
	<path fill-rule="evenodd" clip-rule="evenodd" fill="#F9882B" d="M10.2,10.768c0.199-0.201-0.199-0.403-0.199-0.403
		C10.001,10.164,10.399,10.567,10.2,10.768L10.2,10.768z"/>
	<path fill-rule="evenodd" clip-rule="evenodd" fill="#F9882B" d="M7.021,11.171c-0.198,0-0.596,0-0.596-0.202
		c0,0.202,0.398,0.202,0.596,0.403V11.171z"/>
	<path fill-rule="evenodd" clip-rule="evenodd" fill="#F9882B" d="M6.425,9.559c0,0,0.199-0.202,0.398-0.202
		C6.624,9.559,6.425,9.559,6.425,9.559L6.425,9.559z"/>
	<path fill-rule="evenodd" clip-rule="evenodd" fill="#F9882B" d="M9.008,8.148c0.198-0.202,0.397-0.402,0.596-0.402
		C9.405,7.947,9.206,7.947,9.008,8.148L9.008,8.148z"/>
	<path fill-rule="evenodd" clip-rule="evenodd" fill="#F9882B" d="M15.963,8.35c0-0.202,0.198-0.403,0.398-0.403l0,0
		C16.161,7.947,15.963,8.148,15.963,8.35L15.963,8.35z"/>
	<path fill-rule="evenodd" clip-rule="evenodd" fill="#F9882B" d="M15.566,8.753c0-0.201,0.198-0.403,0.397-0.403
		C15.764,8.35,15.764,8.753,15.566,8.753L15.566,8.753z"/>
	<path fill-rule="evenodd" clip-rule="evenodd" fill="#F9882B" d="M26.097,4.924c0.199-0.202,0.199,0.202,0.397,0.202
		C26.296,5.127,26.296,4.924,26.097,4.924L26.097,4.924z"/>
	<path fill-rule="evenodd" clip-rule="evenodd" fill="#F9882B" d="M13.976,6.939c0-0.201,0.198-0.201,0.398-0.201
		c-0.2,0,0,0.201-0.2,0.201V6.739L13.976,6.939L13.976,6.939z"/>
	<path fill-rule="evenodd" clip-rule="evenodd" fill="#F9882B" d="M12.982,7.342c0,0.202-0.398,0.202-0.198,0H12.982L12.982,7.342z"
		/>
	<path fill-rule="evenodd" clip-rule="evenodd" fill="#F9882B" d="M15.168,6.939c0.198-0.201,0.198-0.201,0.398-0.201l0,0
		C15.366,6.536,15.366,6.939,15.168,6.939L15.168,6.939z"/>
	<path fill-rule="evenodd" clip-rule="evenodd" fill="#F9882B" d="M12.584,7.746c0.199,0,0.398,0,0.596,0
		C12.982,7.544,12.584,7.544,12.584,7.746L12.584,7.746z M15.168,6.939c0.198,0,0.198-0.403,0.398-0.201
		c-0.398,0.604-0.795,1.208-1.789,1.007c-0.198,0-0.198,0.201-0.397,0c-0.199,0.201-0.397,0-0.397,0.201l-0.198-0.201
		c0,0-0.398,0-0.597,0h-0.198c0-0.202,0.397,0,0.397,0c0-0.202-0.397-0.202-0.597-0.202h-0.397c0.597,0,1.192-0.605,1.59-0.605
		c0,0.202-0.198,0.202-0.198,0.403c-0.199,0.202,0.198,0.202,0.198,0c0.397,0,0.596-0.201,0.994-0.403l0,0l0.198-0.201v0.201
		c0,0.202-0.198,0.202-0.198,0.605C14.373,7.544,14.97,7.141,15.168,6.939L15.168,6.939z"/>
	<path fill-rule="evenodd" clip-rule="evenodd" fill="#F9882B" d="M27.091,7.947c0,0,0.198,0.202,0.198,0.403
		C27.289,8.148,27.091,8.148,27.091,7.947L27.091,7.947z"/>
	<path fill-rule="evenodd" clip-rule="evenodd" fill="#F9882B" d="M13.18,7.746c-0.198,0-0.396,0-0.596,0
		C12.584,7.544,12.982,7.544,13.18,7.746L13.18,7.746z"/>
	<path fill-rule="evenodd" clip-rule="evenodd" fill="#F9882B" d="M11.79,7.544c0.199,0,0.597,0,0.597,0.202
		c0,0-0.397-0.202-0.397,0c-0.398-0.202-0.795,0.201-0.994,0C11.392,7.746,11.591,7.746,11.79,7.544L11.79,7.544z"/>
	<path fill-rule="evenodd" clip-rule="evenodd" fill="#F9882B" d="M10.399,7.947c-0.199,0.202-0.398,0-0.597,0
		c0.199,0,0.199-0.201,0.398-0.201c0,0-0.199,0-0.199,0.201H10.399L10.399,7.947z"/>
	<path fill-rule="evenodd" clip-rule="evenodd" fill="#F9882B" d="M9.405,8.955c0.199-0.403,0.994-0.202,0.795,0.202
		c0,0,0-0.202,0,0l0,0c0-0.202-0.398-0.202-0.596-0.202c0-0.202,0.199,0,0.397,0C9.803,8.753,9.604,8.955,9.405,8.955L9.405,8.955z"
		/>
	<path fill-rule="evenodd" clip-rule="evenodd" fill="#F9882B" d="M5.63,13.187c0.198-0.202,0.397-0.202,0.397-0.404
		c-0.199,0-0.199,0-0.199-0.202c0.199,0.202,0.199,0,0.199,0C6.027,12.783,5.828,12.984,5.63,13.187L5.63,13.187z"/>
	<path fill-rule="evenodd" clip-rule="evenodd" fill="#F9882B" d="M5.828,12.582c0.199-0.201,0-0.201,0-0.403
		c0.199-0.201,0.397-0.201,0.397-0.403c0,0.202-0.397,0.403-0.198,0.805C6.027,12.582,6.027,12.783,5.828,12.582L5.828,12.582z"/>
	<path fill-rule="evenodd" clip-rule="evenodd" fill="#F9882B" d="M9.803,12.783c0,0,0.199-0.202,0.398-0.202
		C10.001,12.582,10.001,12.783,9.803,12.783L9.803,12.783z"/>
	<path fill-rule="evenodd" clip-rule="evenodd" fill="#F9882B" d="M6.027,12.783c0,0.201-0.199,0.201-0.397,0.404c0,0,0,0.2,0,0.402
		c0,0.202-0.199,0.202-0.398,0.404c0,0.201,0,0.805-0.398,0.604C5.232,14.194,5.431,13.187,6.027,12.783L6.027,12.783z"/>
	<path fill-rule="evenodd" clip-rule="evenodd" fill="#F9882B" d="M5.033,14.999c0.199,0,0-0.202-0.199-0.202
		c0.199,0,0.398,0,0.398,0c0,0.403-0.398,0.403,0,0.403c0,0.202-0.398,0-0.398,0.202c0.398,0.201,0.398,0.806,0.199,0.806
		c0.199,0.202,0,0.604,0,1.008c-0.199-0.202,0-0.806-0.199-1.008c0-0.202,0.199-0.202,0.199-0.404c0-0.201-0.199-0.201-0.199-0.402
		C4.637,15.201,5.033,15.201,5.033,14.999L5.033,14.999z"/>
	<path fill-rule="evenodd" clip-rule="evenodd" fill="#F9882B" d="M28.283,19.029c0,0.202,0,0.202,0,0.202s0,0.201-0.2,0.201
		C28.084,19.433,28.084,19.232,28.283,19.029L28.283,19.029z"/>
	<path fill-rule="evenodd" clip-rule="evenodd" fill="#F9882B" d="M5.232,17.821c0-0.202-0.199-0.402-0.199-0.402
		c0.199,0.2,0.199,0.402,0.398,0.402c0,0,0,0.201-0.199,0.201c0,0,0,0.202,0.199,0.202c-0.199,0.202,0,0.202,0,0.403
		c-0.199-0.201-0.398-0.604-0.398-0.805c0,0-0.199,0-0.199-0.202C5.033,17.619,5.033,17.619,5.232,17.821L5.232,17.821z"/>
	<path fill-rule="evenodd" clip-rule="evenodd" fill="#F9882B" d="M27.687,20.844c0.198-0.202,0.198-0.404,0.397-0.606
		C27.886,20.44,27.886,20.642,27.687,20.844L27.687,20.844L27.687,20.844z"/>
	<path fill-rule="evenodd" clip-rule="evenodd" fill="#F9882B" d="M3.444,19.029l0.199-0.2c0,0,0.199,0,0,0.2
		C3.643,19.029,3.643,19.029,3.444,19.029L3.444,19.029z"/>
	<path fill-rule="evenodd" clip-rule="evenodd" fill="#F9882B" d="M3.444,19.029c0,0,0.199,0.202,0,0.202l0,0
		c0-0.202,0-0.202,0.199-0.403L3.444,19.029z"/>
	<path fill-rule="evenodd" clip-rule="evenodd" fill="#F9882B" d="M15.168,27.494c0.198,0,0,0,0,0.201l0,0
		C14.97,27.494,15.168,27.494,15.168,27.494L15.168,27.494z"/>
	<path fill-rule="evenodd" clip-rule="evenodd" fill="#F9882B" d="M14.174,27.494c0.398,0,0.398-0.203,0.597-0.203
		c0,0.203-0.199,0.203-0.398,0.404C14.373,27.494,14.174,27.695,14.174,27.494L14.174,27.494z"/>
	<path fill-rule="evenodd" clip-rule="evenodd" fill="#F9882B" d="M14.174,27.695c-0.397-0.201-0.397,0-0.595,0
		c0-0.201,0.198,0,0.397-0.201c0,0,0,0,0.198,0V27.695z"/>
	<path fill-rule="evenodd" clip-rule="evenodd" fill="#F9882B" d="M15.366,28.299c0,0.201-0.198,0-0.198,0.201
		c-0.198,0,0-0.201,0-0.201H15.366z"/>
	<path fill-rule="evenodd" clip-rule="evenodd" fill="#F9882B" d="M15.366,0.693l0.795,0.201c-0.198,0-0.595,0-0.795,0V0.693z"/>
	<path fill-rule="evenodd" clip-rule="evenodd" fill="#F9882B" d="M11.989,2.709c0.198,0,0.198-0.202,0.397-0.202
		c0,0.202-0.199,0.403-0.597,0.403C11.79,2.91,11.989,2.91,11.989,2.709L11.989,2.709z"/>
	<path fill-rule="evenodd" clip-rule="evenodd" fill="#F9882B" d="M17.95,4.722c0.199-0.202,0.397,0,0.596,0
		C18.347,4.924,18.149,4.722,17.95,4.722L17.95,4.722z"/>
	<path fill-rule="evenodd" clip-rule="evenodd" fill="#F9882B" d="M16.956,4.722c-0.199,0.202-0.199,0.404-0.199,0.605
		C16.559,5.127,16.758,4.722,16.956,4.722L16.956,4.722z"/>
	<path fill-rule="evenodd" clip-rule="evenodd" fill="#F9882B" d="M16.559,7.342V6.739C16.559,6.739,16.559,7.141,16.559,7.342
		L16.559,7.342z"/>
	<path fill-rule="evenodd" clip-rule="evenodd" fill="#F9882B" d="M16.758,7.746c0,0.201-0.198,0.201-0.397,0.201l0,0
		C16.36,7.746,16.559,7.746,16.758,7.746L16.758,7.746z"/>
	<path fill-rule="evenodd" clip-rule="evenodd" fill="#F9882B" d="M12.187,7.746c0.199,0,0.597,0,0.597,0H12.187z"/>
	<path fill-rule="evenodd" clip-rule="evenodd" fill="#F9882B" d="M12.982,7.947c0-0.201,0.198,0,0.397-0.201
		C13.379,7.947,12.982,7.746,12.982,7.947L12.982,7.947z"/>
	<path fill-rule="evenodd" clip-rule="evenodd" fill="#F9882B" d="M11.989,8.148h0.993C12.784,8.35,12.386,8.148,11.989,8.148
		L11.989,8.148z"/>
	<path fill-rule="evenodd" clip-rule="evenodd" fill="#F9882B" d="M10.597,7.947c0.398,0.202,0.994,0,1.392,0.202l0,0
		C11.591,8.148,10.995,8.148,10.597,7.947L10.597,7.947z"/>
	<path fill-rule="evenodd" clip-rule="evenodd" fill="#F9882B" d="M26.693,9.962c0,0.202-0.199,0.202-0.397,0.202
		C26.495,10.164,26.693,9.962,26.693,9.962L26.693,9.962z"/>
	<path fill-rule="evenodd" clip-rule="evenodd" fill="#F9882B" d="M10.2,9.157l-0.199,0.201c0,0-0.199,0-0.397-0.201V8.955
		C9.803,8.955,10.2,8.955,10.2,9.157L10.2,9.157z"/>
	<path fill-rule="evenodd" clip-rule="evenodd" fill="#F9882B" d="M6.823,9.358c0.198-0.201,0.397,0,0.596,0
		C7.219,9.559,7.021,9.157,6.823,9.358L6.823,9.358z"/>
	<path fill-rule="evenodd" clip-rule="evenodd" fill="#F9882B" d="M23.713,11.776c0,0,0,0.403-0.2,0.604L23.713,11.776z"/>
	<path fill-rule="evenodd" clip-rule="evenodd" fill="#F9882B" d="M8.014,11.171c-0.199,0.201-0.795,0.201-0.994,0v0.201
		C7.418,11.372,7.617,11.372,8.014,11.171L8.014,11.171z"/>
	<path fill-rule="evenodd" clip-rule="evenodd" fill="#F9882B" d="M10.796,11.776l0.398,0.202
		C11.392,11.978,10.597,11.978,10.796,11.776L10.796,11.776z"/>
	<path fill-rule="evenodd" clip-rule="evenodd" fill="#F9882B" d="M4.239,11.776c0,0.202,0,0.604,0,0.604
		C4.239,12.179,4.239,11.978,4.239,11.776L4.239,11.776z"/>
	<path fill-rule="evenodd" clip-rule="evenodd" fill="#F9882B" d="M8.809,12.582c0,0,0.397,0,0.397,0.202
		C9.008,12.783,9.008,12.582,8.809,12.582L8.809,12.582z"/>
	<path fill-rule="evenodd" clip-rule="evenodd" fill="#F9882B" d="M7.219,12.984c0,0.202,0-0.403,0-0.403
		C7.418,12.783,7.219,12.984,7.219,12.984L7.219,12.984z"/>
	<path fill-rule="evenodd" clip-rule="evenodd" fill="#F9882B" d="M8.213,13.387c0.199,0,0.398-0.2,0.398,0
		C8.412,13.387,8.213,13.589,8.213,13.387L8.213,13.387z"/>
	<path fill-rule="evenodd" clip-rule="evenodd" fill="#F9882B" d="M3.245,13.993c-0.198-0.202,0-0.806,0-0.806
		C3.245,13.387,3.245,13.589,3.245,13.993L3.245,13.993z"/>
	<path fill-rule="evenodd" clip-rule="evenodd" fill="#F9882B" d="M0.662,14.798l0.199-1.411
		C0.861,13.791,0.861,14.395,0.662,14.798L0.662,14.798z"/>
	<path fill-rule="evenodd" clip-rule="evenodd" fill="#F9882B" d="M4.835,14.798c0.199,0,0.398,0.202,0.199,0.202l0,0
		C4.835,14.999,4.835,14.798,4.835,14.798L4.835,14.798z"/>
	<path fill-rule="evenodd" clip-rule="evenodd" fill="#F9882B" d="M16.161,17.015l-0.198,0.604
		C15.963,17.619,15.963,17.217,16.161,17.015L16.161,17.015z"/>
	<path fill-rule="evenodd" clip-rule="evenodd" fill="#F9882B" d="M9.803,18.223c0-0.202,0-0.402,0.199-0.605
		C9.803,17.821,10.001,18.022,9.803,18.223L9.803,18.223z"/>
	<path fill-rule="evenodd" clip-rule="evenodd" fill="#F9882B" d="M16.559,19.836c0-0.201,0-0.604,0-1.006
		C16.758,19.029,16.559,19.433,16.559,19.836L16.559,19.836z"/>
	<path fill-rule="evenodd" clip-rule="evenodd" fill="#F9882B" d="M27.687,21.045c-0.199,0,0-0.201,0-0.201l0,0h0.198
		C27.687,20.844,27.687,21.045,27.687,21.045L27.687,21.045z"/>
	<path fill-rule="evenodd" clip-rule="evenodd" fill="#F9882B" d="M14.373,22.254v-0.203c0,0,0-0.201,0.198-0.201v0.403
		C14.373,22.052,14.572,22.455,14.373,22.254L14.373,22.254z"/>
	<path fill-rule="evenodd" clip-rule="evenodd" fill="#F9882B" d="M14.373,22.052v0.203c0,0.201,0,0.605,0,0.403V22.052
		L14.373,22.052z"/>
	<path fill-rule="evenodd" clip-rule="evenodd" fill="#F9882B" d="M14.572,22.657v0.402C14.373,23.06,14.572,22.657,14.572,22.657
		L14.572,22.657z"/>
	<path fill-rule="evenodd" clip-rule="evenodd" fill="#F9882B" d="M13.777,22.657h0.397C14.174,22.86,13.777,22.86,13.777,22.657
		L13.777,22.657z"/>
	<path fill-rule="evenodd" clip-rule="evenodd" fill="#F9882B" d="M15.963,22.86L15.963,22.86c-0.199,0-0.199,0.2-0.199,0.2
		C15.764,22.86,15.963,22.657,15.963,22.86L15.963,22.86z"/>
	<path fill-rule="evenodd" clip-rule="evenodd" fill="#F9882B" d="M12.982,24.069c0.198-0.203,0.198-0.605,0.198-0.605
		C13.18,23.664,13.18,23.866,12.982,24.069L12.982,24.069z"/>
	<path fill-rule="evenodd" clip-rule="evenodd" fill="#F9882B" d="M15.168,27.897c0-0.202,0-0.202,0-0.202
		c0.198,0,0.198,0,0.198,0.202H15.168z"/>
	<path fill-rule="evenodd" clip-rule="evenodd" fill="#F9882B" d="M15.764,28.702h-0.198C15.566,28.501,15.764,28.702,15.764,28.702
		L15.764,28.702z"/>
	<path fill-rule="evenodd" clip-rule="evenodd" fill="#F9882B" d="M15.963,29.105c-0.397-0.201,0.198,0,0-0.201h0.198
		C16.161,28.904,16.161,29.105,15.963,29.105L15.963,29.105z"/>
	<path fill-rule="evenodd" clip-rule="evenodd" fill="#F9882B" d="M12.982,7.947c0-0.201,0.397,0,0.397-0.201
		c0.199,0.201,0.199,0,0.397,0c-0.198,0.201-0.597,0.201-0.993,0L12.982,7.947z"/>
	<path fill-rule="evenodd" clip-rule="evenodd" fill="#F9882B" d="M11.989,8.148c0.397,0,0.993,0,1.191,0c0,0.202,0,0-0.198,0
		H11.989z"/>
	<path fill-rule="evenodd" clip-rule="evenodd" fill="#F9882B" d="M4.239,17.015c0,0,0,0.404,0,0.604
		C4.04,17.419,4.239,17.217,4.239,17.015L4.239,17.015z"/>
	<path fill-rule="evenodd" clip-rule="evenodd" fill="#F9882B" d="M28.283,19.029c0.397-1.008,0.397-2.619,0.596-4.03
		c0,0.806-0.199,1.814,0,2.619l-0.199,0.403c0,0.404-0.199,0.807-0.397,1.21C28.283,19.232,28.283,19.232,28.283,19.029
		L28.283,19.029z"/>
</g>
<g>
	<g>
		<path fill="#AEAEAD" d="M32.512,3.656h1.285c1.166,0,1.417,0.706,1.417,1.132c0,0.785-0.518,0.995-0.893,1.115l1.092,1.929H34.73
			l-0.99-1.854h-0.643v1.854h-0.586V3.656z M33.092,4.145v1.382c0.318,0.006,0.728,0.006,0.944-0.04
			c0.227-0.051,0.586-0.171,0.586-0.637c0-0.489-0.33-0.706-0.956-0.706H33.092z"/>
	</g>
	<path fill="#AEAEAD" d="M33.778,9.31c-1.863,0-3.378-1.515-3.378-3.377c0-1.864,1.516-3.379,3.378-3.379
		c1.863,0,3.378,1.515,3.378,3.379C37.156,7.795,35.641,9.31,33.778,9.31z M33.778,2.937c-1.651,0-2.995,1.344-2.995,2.996
		c0,1.651,1.343,2.994,2.995,2.994c1.651,0,2.995-1.343,2.995-2.994C36.773,4.281,35.429,2.937,33.778,2.937z"/>
</g>
<polygon fill="#164159" points="34.045,11.775 34.045,14.312 36.35,14.312 36.35,22.884 38.735,22.884 38.735,14.312 41.04,14.312 
	41.04,11.775 "/>
</svg>
